<?xml version="1.0" encoding="utf-8"?>
<svg xmlns="http://www.w3.org/2000/svg" height="24px" viewBox="0 -960 960 960" width="24px" fill="#FFFFFF">
  <a transform="matrix(1, 0, 0, 1, 0, 17.576996)">
    <path d="M 480 -96.564 C 449.5 -96.564 418.25 -102.06 386.25 -113.06 C 354.25 -124.06 325.25 -139.06 299.25 -158.06 C 273.25 -177.06 251.875 -199.31 235.125 -224.81 C 218.375 -250.31 210 -277.56 210 -306.56 L 210 -396.56 L 330 -306.56 L 283.5 -260.06 C 298 -234.56 321 -212.56 352.5 -194.06 C 384 -175.56 416.5 -163.81 450 -158.81 L 450 -426.56 L 360 -426.56 L 360 -486.56 L 450 -486.56 L 450 -521.81 C 432.5 -528.31 418.125 -539.19 406.875 -554.44 C 395.625 -569.69 390 -587.06 390 -606.56 C 390 -631.56 398.75 -652.81 416.25 -670.31 C 433.75 -687.81 455 -696.56 480 -696.56 C 505 -696.56 526.25 -687.81 543.75 -670.31 C 561.25 -652.81 570 -631.56 570 -606.56 C 570 -587.06 564.375 -569.69 553.125 -554.44 C 541.875 -539.19 527.5 -528.31 510 -521.81 L 510 -486.56 L 600 -486.56 L 600 -426.56 L 510 -426.56 L 510 -158.81 C 543.5 -163.81 576 -175.56 607.5 -194.06 C 639 -212.56 662 -234.56 676.5 -260.06 L 630 -306.56 L 750 -396.56 L 750 -306.56 C 750 -277.56 741.625 -250.31 724.875 -224.81 C 708.125 -199.31 686.75 -177.06 660.75 -158.06 C 634.75 -139.06 605.75 -124.06 573.75 -113.06 C 541.75 -102.06 510.5 -96.564 480 -96.564 Z M 480 -576.56 C 488.5 -576.56 495.625 -579.44 501.375 -585.19 C 507.125 -590.94 510 -598.06 510 -606.56 C 510 -615.06 507.125 -622.19 501.375 -627.94 C 495.625 -633.69 488.5 -636.56 480 -636.56 C 471.5 -636.56 464.375 -633.69 458.625 -627.94 C 452.875 -622.19 450 -615.06 450 -606.56 C 450 -598.06 452.875 -590.94 458.625 -585.19 C 464.375 -579.44 471.5 -576.56 480 -576.56 Z" style="fill: rgb(0, 0, 0);"/>
    <path d="M 479.999 -572.81 C 466.582 -572.81 455.242 -577.43 445.979 -586.71 C 436.715 -595.96 432.082 -607.31 432.082 -620.73 C 432.082 -634.14 436.715 -645.47 445.979 -654.76 C 455.242 -664.01 466.582 -668.64 479.999 -668.64 C 493.418 -668.64 504.756 -664.01 514.021 -654.76 C 523.284 -645.47 527.918 -634.14 527.918 -620.73 C 527.918 -607.31 523.284 -595.96 514.021 -586.71 C 504.756 -577.43 493.418 -572.81 479.999 -572.81 Z M 371.708 -681.1 L 331.458 -722.31 C 350.305 -741.15 372.427 -756.1 397.823 -767.11 C 423.217 -778.11 450.61 -783.62 479.999 -783.62 C 509.386 -783.62 536.783 -778.07 562.177 -766.88 C 587.573 -755.68 609.692 -740.51 628.542 -721.35 L 588.292 -681.1 C 574.233 -695.15 557.943 -706.17 539.418 -714.15 C 520.886 -722.15 501.083 -726.14 479.999 -726.14 C 458.917 -726.14 439.11 -722.15 420.582 -714.15 C 402.055 -706.17 385.764 -695.15 371.708 -681.1 Z M 290.25 -762.56 L 250 -802.79 C 279.39 -832.82 313.73 -856.32 353.02 -873.19 C 392.312 -890.16 434.639 -898.59 479.999 -898.59 C 525.358 -898.59 567.687 -890.16 606.98 -873.19 C 646.27 -856.32 680.608 -832.82 710 -802.79 L 669.75 -762.56 C 645.15 -787.14 616.64 -806.36 584.22 -820.29 C 551.794 -834.17 517.054 -841.12 479.999 -841.12 C 442.945 -841.12 408.205 -834.17 375.782 -820.29 C 343.357 -806.36 314.848 -787.14 290.25 -762.56 Z" style="fill: rgb(0, 0, 0);"/>
  </a>
</svg>